<svg id="Layer_1" data-name="Layer 1" xmlns="http://www.w3.org/2000/svg" viewBox="0 0 2361.77 1011.25"><defs><style>.cls-1{fill:#f8b43b;}.cls-2{fill:#fce8ae;}.cls-3{fill:#fcebb9;}.cls-4{fill:#f7cb46;}.cls-5{fill:#f69a08;opacity:0.95;}.cls-6{fill:#f5be18;}.cls-7{fill:#fff;}</style></defs><polygon class="cls-1" points="2057.95 234.37 1792.17 378.53 1786.91 240.96 2057.95 95.65 2057.95 234.37"/><polygon class="cls-2" points="2057.95 234.37 2210.87 307.88 2348.22 234.99 2057.95 95.65 2057.95 234.37"/><polygon class="cls-3" points="2342.06 522.12 2065.5 674.31 1792.17 529.86 2057.95 385.7 2342.06 522.12"/><polygon class="cls-4" points="2342.06 370.79 2065.5 522.98 1792.17 378.53 2057.95 234.37 2342.06 370.79"/><polygon class="cls-5" points="2342.06 522.12 2065.5 674.31 2065.5 522.98 2342.06 370.79 2342.06 522.12"/><polygon class="cls-6" points="2065.5 674.31 1792.17 529.86 1792.17 500.72 2065.52 646.79 2065.5 674.31"/><polygon class="cls-6" points="2067.03 411.44 1787.88 265.49 1786.91 240.96 2065.38 383.2 2067.03 411.44"/><polygon class="cls-6" points="2067.01 411.41 2347.81 258.73 2348.22 234.99 2065.37 383.17 2067.01 411.41"/><path class="cls-7" d="M1863,944.89l7.07-8.11c6.69,6.93,16,11.5,25.62,11.5,12.18,0,19.41-6.07,19.41-15.09,0-9.48-6.73-12.51-15.49-16.33L1886.28,911c-8.65-3.69-18.8-10.25-18.8-23.9,0-14.19,12.36-24.65,29.23-24.65a38.34,38.34,0,0,1,27.34,11.51l-6.27,7.59c-5.69-5.37-12.49-8.71-21.07-8.71-10.42,0-17.31,5.25-17.31,13.56,0,8.94,8.09,12.29,15.37,15.36l13.23,5.73c10.74,4.61,19.13,11,19.13,24.82,0,14.67-12.12,26.39-31.64,26.39A44.55,44.55,0,0,1,1863,944.89Z" transform="translate(-194 -34)"/><path class="cls-7" d="M1956.61,864.12h11.82V910.7h.39l38.58-46.58h13.36l-29,35.38L2025.24,957h-13.18l-27.71-48.24-15.92,18.89V957h-11.82Z" transform="translate(-194 -34)"/><path class="cls-7" d="M2049.85,864.12h11.82V957h-11.82Z" transform="translate(-194 -34)"/><path class="cls-7" d="M2098.38,864.12h11.82V947h40.52v10h-52.34Z" transform="translate(-194 -34)"/><path class="cls-7" d="M2178.46,864.12h11.82V947h40.52v10h-52.34Z" transform="translate(-194 -34)"/><path class="cls-7" d="M2248.7,944.89l7.07-8.11c6.69,6.93,16,11.5,25.62,11.5,12.18,0,19.41-6.07,19.41-15.09,0-9.48-6.73-12.51-15.49-16.33L2272,911c-8.65-3.69-18.8-10.25-18.8-23.9,0-14.19,12.36-24.65,29.23-24.65a38.34,38.34,0,0,1,27.34,11.51l-6.27,7.59c-5.69-5.37-12.49-8.71-21.07-8.71-10.41,0-17.31,5.25-17.31,13.56,0,8.94,8.1,12.29,15.37,15.36l13.23,5.73c10.75,4.61,19.13,11,19.13,24.82,0,14.67-12.12,26.39-31.64,26.39A44.55,44.55,0,0,1,2248.7,944.89Z" transform="translate(-194 -34)"/><path class="cls-7" d="M2342.31,864.12h11.81V903h43.18V864.12h11.82V957H2397.3V913.32h-43.18V957h-11.81Z" transform="translate(-194 -34)"/><path class="cls-7" d="M2445.87,864.12h11.81V957h-11.81Z" transform="translate(-194 -34)"/><path class="cls-7" d="M2494.4,864.12h26.52c20.8,0,34.84,7,34.84,27.34,0,19.54-14,28.68-34.28,28.68h-15.26V957H2494.4ZM2520,910.56c16.24,0,24-5.89,24-19.1,0-13.39-8.24-17.76-24.55-17.76h-13.21v36.86Z" transform="translate(-194 -34)"/><path class="cls-7" d="M1905.17,999.23h3.45l-17,45.4h-2.79l-16.93-45.4h3.39l11.43,30.9q2.6,7,3.5,10.49.63-2.32,2.46-7.23Z" transform="translate(-194 -34)"/><path class="cls-7" d="M2010.18,1044.63h-24.81v-45.4h24.81v2.92h-21.64v17.17H2009v2.92h-20.43v19.47h21.64Z" transform="translate(-194 -34)"/><path class="cls-7" d="M2090.78,1044.63v-45.4H2094v42.42h21.65v3Z" transform="translate(-194 -34)"/><path class="cls-7" d="M2193.75,1044.63v-45.4h3.16v42.42h21.65v3Z" transform="translate(-194 -34)"/><path class="cls-7" d="M2334.87,1021.87q0,10.8-5.4,17.09t-14.91,6.29q-9.46,0-14.87-6.29t-5.4-17.16q0-10.83,5.45-17.06t14.89-6.23q9.49,0,14.87,6.26T2334.87,1021.87Zm-37.14,0q0,9.75,4.35,15.07t12.48,5.33q8.21,0,12.53-5.28t4.34-15.12q0-9.82-4.34-15t-12.46-5.23q-8.12,0-12.5,5.28T2297.73,1021.87Z" transform="translate(-194 -34)"/><path class="cls-7" d="M2418.8,1024.85v19.78h-3.17v-45.4h10.8q8.46,0,12.49,3.12t4,9.39a12.33,12.33,0,0,1-2.41,7.71,13.39,13.39,0,0,1-7.31,4.5l12.32,20.68h-3.79l-11.7-19.78Zm0-2.74h8.66q5.74,0,8.91-2.56c2.11-1.7,3.17-4.23,3.17-7.56s-1-6-3.11-7.54-5.44-2.36-10.12-2.36h-7.51Z" transform="translate(-194 -34)"/><path class="cls-7" d="M2548.56,1044.63h-24.82v-45.4h24.82v2.92h-21.65v17.17h20.43v2.92h-20.43v19.47h21.65Z" transform="translate(-194 -34)"/><polygon class="cls-4" points="1697.92 741.25 2046.99 741.25 2046.99 711.11 2075.8 711.11 2075.8 775.16 1669.01 775.16 1669.01 0 2075.8 0 2075.8 63.5 2047.36 63.5 2047.36 32.92 1697.78 32.92 1697.92 741.25"/><polygon class="cls-1" points="388.94 352.79 123.16 496.95 117.9 359.38 388.94 214.07 388.94 352.79"/><polygon class="cls-2" points="388.94 352.79 541.86 426.31 679.2 353.41 388.94 214.07 388.94 352.79"/><polygon class="cls-3" points="673.05 640.54 396.49 792.73 123.16 648.28 388.94 504.12 673.05 640.54"/><polygon class="cls-4" points="673.05 489.21 396.49 641.4 123.16 496.95 388.94 352.79 673.05 489.21"/><polygon class="cls-5" points="673.05 640.54 396.49 792.73 396.49 641.4 673.05 489.21 673.05 640.54"/><polygon class="cls-6" points="396.49 792.73 123.16 648.28 123.16 619.14 396.5 765.21 396.49 792.73"/><polygon class="cls-6" points="398.01 529.86 118.87 383.91 117.9 359.38 396.37 501.63 398.01 529.86"/><polygon class="cls-6" points="398 529.83 678.8 377.15 679.2 353.41 396.36 501.59 398 529.83"/><polygon class="cls-4" points="28.91 859.67 377.98 859.67 377.98 829.53 406.79 829.53 406.79 893.58 0 893.58 0 118.42 406.79 118.42 406.79 181.93 378.35 181.93 378.35 151.34 28.77 151.34 28.91 859.67"/></svg>