<svg id="Layer_1" data-name="Layer 1" xmlns="http://www.w3.org/2000/svg" viewBox="0 0 2931.55 775.16"><defs><style>.cls-1{fill:#f8b43b;}.cls-2{fill:#fce8ae;}.cls-3{fill:#fcebb9;}.cls-4{fill:#f7cb46;}.cls-5{fill:#f69a08;opacity:0.95;}.cls-6{fill:#f5be18;}</style></defs><path d="M1090.65,531.92l20.77-23.82c19.64,20.36,46.89,33.8,75.25,33.8,35.79,0,57-17.84,57-44.33,0-27.86-19.75-36.74-45.5-48L1159,432.31c-25.42-10.85-55.23-30.12-55.23-70.23,0-41.67,36.3-72.39,85.86-72.39a112.57,112.57,0,0,1,80.3,33.79l-18.4,22.3c-16.71-15.78-36.7-25.58-61.9-25.58-30.59,0-50.85,15.43-50.85,39.82,0,26.28,23.78,36.11,45.15,45.14L1222.81,422c31.56,13.56,56.19,32.36,56.19,72.92,0,43.09-35.6,77.51-93,77.51A130.74,130.74,0,0,1,1090.65,531.92Z" transform="translate(-194 -152.42)"/><path d="M1365.6,294.68h34.71V431.49h1.14l113.32-136.81H1554l-85.35,103.93,98.51,168.81h-38.73l-81.37-141.71-46.78,55.48v86.23H1365.6Z" transform="translate(-194 -152.42)"/><path d="M1639.48,294.68h34.71V567.42h-34.71Z" transform="translate(-194 -152.42)"/><path d="M1782,294.68h34.7V538h119v29.38H1782Z" transform="translate(-194 -152.42)"/><path d="M2017.27,294.68H2052V538h119v29.38H2017.27Z" transform="translate(-194 -152.42)"/><path d="M2223.58,531.92l20.77-23.82c19.64,20.36,46.89,33.8,75.24,33.8,35.8,0,57-17.84,57-44.33,0-27.86-19.75-36.74-45.5-48l-39.18-17.27c-25.41-10.85-55.22-30.12-55.22-70.23,0-41.67,36.3-72.39,85.86-72.39a112.58,112.58,0,0,1,80.3,33.79l-18.4,22.3c-16.71-15.78-36.7-25.58-61.9-25.58-30.59,0-50.85,15.43-50.85,39.82,0,26.28,23.78,36.11,45.15,45.14L2355.74,422c31.56,13.56,56.19,32.36,56.19,72.92,0,43.09-35.61,77.51-92.95,77.51A130.74,130.74,0,0,1,2223.58,531.92Z" transform="translate(-194 -152.42)"/><path d="M2498.54,294.68h34.7V408.9h126.85V294.68h34.7V567.42h-34.7V439.19H2533.24V567.42h-34.7Z" transform="translate(-194 -152.42)"/><path d="M2802.75,294.68h34.7V567.42h-34.7Z" transform="translate(-194 -152.42)"/><path d="M2945.3,294.68h77.89c61.11,0,102.36,20.55,102.36,80.31,0,57.4-41,84.24-100.69,84.24H2980V567.42H2945.3Zm75.18,136.4c47.7,0,70.45-17.29,70.45-56.09,0-39.34-24.2-52.16-72.11-52.16H2980V431.08Z" transform="translate(-194 -152.42)"/><path d="M1214.49,691.55h10.13L1174.73,824.9h-8.21L1116.8,691.55h10l33.57,90.76q7.65,20.52,10.3,30.83,1.83-6.85,7.21-21.26Z" transform="translate(-194 -152.42)"/><path d="M1523,824.9h-72.88V691.55H1523v8.57h-63.57v50.44h60v8.58h-60v57.19H1523Z" transform="translate(-194 -152.42)"/><path d="M1759.72,824.9V691.55h9.3V816.14h63.58v8.76Z" transform="translate(-194 -152.42)"/><path d="M2062.16,824.9V691.55h9.3V816.14H2135v8.76Z" transform="translate(-194 -152.42)"/><path d="M2476.7,758q0,31.74-15.87,50.21t-43.78,18.48q-27.83,0-43.69-18.48t-15.88-50.39q0-31.83,16-50.12t43.74-18.29q27.9,0,43.69,18.38T2476.7,758Zm-109.09,0q0,28.65,12.77,44.29T2417.05,818q24.07,0,36.8-15.51T2466.58,758q0-28.81-12.73-44.19t-36.62-15.37q-23.8,0-36.72,15.51T2367.61,758Z" transform="translate(-194 -152.42)"/><path d="M2723.22,766.8v58.1h-9.3V691.55h31.74q24.81,0,36.67,9.16t11.85,27.59q0,13.43-7.07,22.63t-21.47,13.22l36.21,60.75h-11.13l-34.39-58.1Zm0-8h25.45q16.88,0,26.18-7.52t9.3-22.21q0-15.24-9.12-22.17t-29.74-6.93h-22.07Z" transform="translate(-194 -152.42)"/><path d="M3104.37,824.9H3031.5V691.55h72.87v8.57H3040.8v50.44h60v8.58h-60v57.19h63.57Z" transform="translate(-194 -152.42)"/><polygon class="cls-1" points="388.94 234.37 123.16 378.53 117.9 240.96 388.94 95.65 388.94 234.37"/><polygon class="cls-2" points="388.94 234.37 541.86 307.88 679.2 234.99 388.94 95.65 388.94 234.37"/><polygon class="cls-3" points="673.05 522.12 396.49 674.31 123.16 529.86 388.94 385.7 673.05 522.12"/><polygon class="cls-4" points="673.05 370.79 396.49 522.98 123.16 378.53 388.94 234.37 673.05 370.79"/><polygon class="cls-5" points="673.05 522.12 396.49 674.31 396.49 522.98 673.05 370.79 673.05 522.12"/><polygon class="cls-6" points="396.49 674.31 123.16 529.86 123.16 500.72 396.5 646.79 396.49 674.31"/><polygon class="cls-6" points="398.01 411.44 118.87 265.49 117.9 240.96 396.37 383.2 398.01 411.44"/><polygon class="cls-6" points="398 411.41 678.8 258.73 679.2 234.99 396.36 383.17 398 411.41"/><polygon class="cls-4" points="28.91 741.25 377.98 741.25 377.98 711.11 406.79 711.11 406.79 775.16 0 775.16 0 0 406.79 0 406.79 63.5 378.35 63.5 378.35 32.92 28.77 32.92 28.91 741.25"/></svg>